<svg version="1.2" xmlns="http://www.w3.org/2000/svg" viewBox="0 0 156 48" width="156" height="48"><style>.a{fill:#ef681c}</style><path d="m46.3 20h1v0.1h0.3 0.2 0.1v0.1h0.2 0.1v0.1h0.2v0.1h0.1 0.1 0.1v0.1h0.1v0.1h0.1v0.1h0.1 0.1v0.1 0.1h0.1 0.1v0.1h0.1v0.1 0.1h0.1v0.1h0.1v0.1 0.1h0.1v0.1 0.1h0.1v-0.1h0.1v-0.1h0.1v-0.1h0.1v-0.1h0.1v-0.1h0.1 0.1v-0.1h0.1v-0.1h0.1v-0.1h0.1 0.1v-0.1h0.1v-0.1h0.1 0.1v-0.1h0.1v-0.1h0.1 0.1v-0.1h0.1 0.1 0.1v-0.1h0.1 0.1v-0.1h0.1 0.1 0.1v-0.1h0.2 0.1 0.3v-0.1h1v0.1h0.3 0.2 0.1v0.1h0.2 0.1 0.1v0.1h0.1v0.1h0.1 0.1 0.1v0.1h0.1v0.1h0.1v0.1h0.1 0.1v0.1h0.1v0.1h0.1v0.1h0.1v0.1 0.1h0.1v0.1h0.1v0.1 0.1h0.1v0.1h0.1v0.1 0.1 0.1h0.1v0.1 0.1 0.1h0.1v0.2 0.1h0.1v0.3 8.9h-2.4v-8.3-0.2h-0.1v-0.1-0.1h-0.1v-0.1-0.1h-0.1v-0.1-0.1h-0.1v-0.1h-0.1v-0.1h-0.1-0.1v-0.1h-0.1v-0.1h-0.1-0.1-0.2v-0.1h-0.2-0.5-0.2v0.1h-0.2-0.1-0.1v0.1h-0.1-0.1v0.1h-0.1-0.1-0.1v0.1h-0.1-0.1v0.1h-0.1v0.1h-0.1-0.1v0.1h-0.1v0.1h-0.1v0.1h-0.1-0.1v0.1 0.1h-0.1-0.1v0.1 8.4h-2.4v-8.3h-0.1v-0.2-0.1-0.1h-0.1v-0.1-0.1h-0.1v-0.1h-0.1v-0.1-0.1h-0.1v-0.1h-0.1-0.1v-0.1h-0.1v-0.1h-0.1-0.1-0.2v-0.1h-0.2-0.5-0.3v0.1h-0.1-0.2-0.1v0.1h-0.2v0.1h-0.1-0.1v0.1h-0.1-0.1v0.1h-0.1v0.1h-0.1-0.1v0.1h-0.1-0.1v0.1h-0.1v0.1h-0.1v0.1h-0.1v0.1h-0.1v0.1 8.4h-2.4v-11.4h2.2v1.2h0.1v-0.1h0.1v-0.1h0.1v-0.1h0.1 0.1v-0.1-0.1h0.1 0.1v-0.1h0.1v-0.1h0.1v-0.1h0.1 0.1v-0.1h0.1 0.1v-0.1h0.1 0.1v-0.1h0.1 0.1v-0.1h0.1 0.2v-0.1h0.1 0.1 0.1v-0.1h0.1 0.2 0.3z"></path><path d="m21.8 15.5h1.2 0.4 0.2v0.1h0.3 0.1 0.2v0.1h0.1 0.1v0.1h0.1 0.1 0.2v0.1h0.1 0.1v0.1h0.1 0.1v0.1h0.1 0.1v0.1h0.1v0.1h0.1 0.1v0.1h0.1v0.1h0.1v0.1h0.1 0.1v0.1h0.1v0.1h0.1v0.1h0.1v0.1h0.1v0.1h0.1v0.1h0.1v0.1 0.1h0.1v0.1h0.1v0.1 0.1h0.1v0.1 0.1h0.1v0.1h0.1v0.1 0.1h0.1v0.1 0.1 0.1h0.1v0.1 0.1h0.1v0.1 0.1 0.1h0.1v0.2 0.1 0.2h0.1v0.1 0.2h0.1v0.2 0.2 0.1h-0.1-0.2v0.1h-0.2-0.1-0.2v0.1h-0.2-0.1-0.2v0.1h-0.2-0.2v0.1h-0.1-0.2-0.2v0.1h-0.1v-0.1h-0.1v-0.2-0.2-0.2h-0.1v-0.1-0.1h-0.1v-0.1-0.2-0.1h-0.1v-0.2h-0.1v-0.1-0.1h-0.1v-0.1-0.1h-0.1v-0.1-0.1h-0.1v-0.1h-0.1v-0.1h-0.1v-0.1h-0.1v-0.1h-0.1v-0.1h-0.1v-0.1h-0.1-0.1v-0.1h-0.1v-0.1h-0.1-0.1v-0.1h-0.1-0.2v-0.1h-0.1-0.1v-0.1h-0.2-0.2-0.8-0.2-0.2v0.1h-0.1-0.2v0.1h-0.1-0.1-0.1v0.1h-0.1-0.1v0.1h-0.1v0.1h-0.1v0.1h-0.1-0.1v0.1h-0.1v0.1h-0.1v0.1h-0.1v0.1h-0.1v0.1h-0.1v0.1 0.1h-0.1v0.1h-0.1v0.1 0.1h-0.1v0.1h-0.1v0.1 0.1h-0.1v0.1 0.1h-0.1v0.1 0.1 0.1h-0.1v0.1 0.1h-0.1v0.2 0.1h-0.1v0.1 0.1 0.2h-0.1v0.1 0.2h-0.1v0.2 0.2 0.2h-0.1v0.3 0.4 0.5h-0.1v1.8h0.1v0.5 0.3 0.3h0.1v0.2 0.2 0.2h0.1v0.2 0.1h0.1v0.2 0.1 0.1h0.1v0.1 0.1 0.1h0.1v0.1 0.1h0.1v0.1 0.1h0.1v0.1 0.1 0.1h0.1v0.1h0.1v0.1 0.1h0.1v0.1h0.1v0.1h0.1v0.1 0.1h0.1v0.1h0.1v0.1h0.1 0.1v0.1 0.1h0.1 0.1v0.1h0.1 0.1v0.1h0.1v0.1h0.1 0.1v0.1h0.2 0.1v0.1h0.1 0.1 0.3v0.1h0.9v-0.1h0.3 0.1 0.2v-0.1h0.1 0.1v-0.1h0.1 0.1 0.1v-0.1h0.1v-0.1h0.1 0.1v-0.1h0.1 0.1v-0.1h0.1v-0.1h0.1v-0.1h0.1v-0.1h0.1v-0.1h0.1v-0.1h0.1v-0.1-0.1h0.1v-0.1h0.1v-0.1-0.1-0.1h0.1v-0.2-0.1h0.1v-0.1-0.1h0.1v-0.1-0.2-0.3h0.1v-0.4-0.8h-3.3v-2h5.6v7.9h-2v-0.6h-0.1v-0.5-0.5-0.2h-0.1v0.1h-0.1v0.1 0.1h-0.1v0.1 0.1h-0.1v0.1h-0.1v0.1h-0.1v0.1 0.1h-0.1-0.1v0.1h-0.1v0.1h-0.1v0.1h-0.1v0.1h-0.1v0.1h-0.1-0.1v0.1h-0.1-0.1v0.1h-0.1-0.1v0.1h-0.1-0.1v0.1h-0.1-0.1-0.1v0.1h-0.2-0.1v0.1h-0.2-0.2-0.3v0.1h-1.3v-0.1h-0.3-0.2-0.2v-0.1h-0.1-0.2v-0.1h-0.1-0.1-0.1v-0.1h-0.1-0.1-0.1v-0.1h-0.1v-0.1h-0.1-0.1-0.1v-0.1h-0.1v-0.1h-0.1-0.1v-0.1h-0.1v-0.1h-0.1-0.1v-0.1h-0.1v-0.1h-0.1v-0.1h-0.1v-0.1h-0.1v-0.1h-0.1v-0.1h-0.1v-0.1h-0.1v-0.1h-0.1v-0.1h-0.1v-0.1-0.1h-0.1v-0.1h-0.1v-0.1-0.1h-0.1v-0.1-0.1h-0.1v-0.1h-0.1v-0.1-0.1h-0.1v-0.1-0.1h-0.1v-0.1-0.1-0.1h-0.1v-0.1h-0.1v-0.1-0.2h-0.1v-0.1-0.2-0.1h-0.1v-0.1-0.1h-0.1v-0.2-0.1-0.2h-0.1v-0.2-0.2-0.2h-0.1v-0.2-0.2h-0.1v-0.3-0.5-0.6h-0.1v-1.4h0.1v-0.6-0.5-0.3h0.1v-0.3-0.2h0.1v-0.2-0.2-0.2h0.1v-0.1-0.2-0.1h0.1v-0.2-0.1h0.1v-0.1-0.2-0.1h0.1v-0.1-0.1-0.1h0.1v-0.1-0.1h0.1v-0.2h0.1v-0.1-0.1-0.1h0.1v-0.1h0.1v-0.1-0.1h0.1v-0.1-0.1h0.1v-0.1h0.1v-0.1-0.1h0.1v-0.1-0.1h0.1v-0.1h0.1v-0.1h0.1v-0.1-0.1h0.1 0.1v-0.1h0.1v-0.1-0.1h0.1 0.1v-0.1h0.1v-0.1-0.1h0.1 0.1v-0.1h0.1v-0.1h0.1 0.1v-0.1h0.1v-0.1h0.1 0.1v-0.1h0.1v-0.1h0.1 0.1 0.1v-0.1h0.1v-0.1h0.1 0.1 0.1v-0.1h0.1 0.1 0.1v-0.1h0.1 0.2v-0.1h0.1 0.2 0.2v-0.1h0.3 0.3z"></path><path class="a" d="m98 20.3h2.4v0.2h0.1v0.2 0.1 0.2h0.1v0.2 0.1 0.2h0.1v0.1 0.2h0.1v0.2 0.1 0.2h0.1v0.2 0.1 0.2h0.1v0.2 0.1h0.1v0.2 0.2 0.1h0.1v0.2 0.1 0.2h0.1v0.1 0.2h0.1v0.2 0.2 0.1h0.1v0.2 0.2 0.1h0.1v0.2 0.2h0.1v0.1 0.2 0.1h0.1v0.2 0.1 0.2h0.1v0.2 0.2h0.1v0.1 0.2 0.2h0.1v0.1 0.2 0.2h0.1v0.1 0.1h0.1v-0.1-0.2-0.1h0.1v-0.2-0.1-0.2h0.1v-0.1-0.2h0.1v-0.1-0.2-0.1h0.1v-0.2-0.1-0.2h0.1v-0.1-0.2h0.1v-0.1-0.2-0.1h0.1v-0.1-0.2-0.1h0.1v-0.2-0.1h0.1v-0.2-0.1-0.2h0.1v-0.1-0.2-0.1h0.1v-0.2-0.1h0.1v-0.1-0.2-0.1h0.1v-0.2-0.2-0.1h0.1v-0.2-0.1h0.1v-0.2-0.1-0.2h0.1v-0.1-0.2-0.1h0.1v-0.1-0.2-0.1h0.1v-0.2-0.1h0.1v-0.2-0.1-0.2h0.1 2.2v0.1h0.1v0.1 0.2 0.1h0.1v0.2 0.1 0.2h0.1v0.1 0.2h0.1v0.1 0.2 0.1h0.1v0.2 0.1 0.2h0.1v0.1 0.2h0.1v0.1 0.2 0.1h0.1v0.2 0.1 0.2h0.1v0.1 0.2h0.1v0.1 0.2 0.1h0.1v0.2 0.1 0.2h0.1v0.1 0.2h0.1v0.1 0.2 0.1h0.1v0.2 0.1 0.2h0.1v0.1 0.2h0.1v0.1 0.2 0.1h0.1v0.2 0.2 0.1h0.1v0.2 0.1h0.1v0.2 0.1 0.2h0.1v0.1 0.1-0.2h0.1v-0.1-0.2h0.1v-0.1-0.2-0.2h0.1v-0.1-0.2-0.1h0.1v-0.2-0.2h0.1v-0.1-0.2-0.1h0.1v-0.2-0.1-0.2h0.1v-0.1-0.2h0.1v-0.1-0.2-0.2h0.1v-0.1-0.2-0.1h0.1v-0.2-0.2h0.1v-0.1-0.2-0.1h0.1v-0.2-0.2-0.1h0.1v-0.2-0.1h0.1v-0.2-0.2-0.1h0.1v-0.2-0.1-0.2h0.1v-0.2-0.1h0.1v-0.2-0.1-0.2h0.1v-0.1-0.2-0.2h0.1v-0.1-0.1h2.2v0.2 0.1h-0.1v0.2 0.1h-0.1v0.2 0.1 0.1h-0.1v0.2 0.1 0.2h-0.1v0.1 0.2h-0.1v0.1 0.2 0.1h-0.1v0.2 0.1 0.2h-0.1v0.1 0.2h-0.1v0.1 0.1 0.2h-0.1v0.1 0.2 0.1h-0.1v0.2 0.1h-0.1v0.2 0.1 0.1h-0.1v0.2 0.2 0.1h-0.1v0.2 0.1h-0.1v0.2 0.1 0.1h-0.1v0.2 0.1 0.2h-0.1v0.1 0.2h-0.1v0.1 0.1 0.2h-0.1v0.1 0.2 0.1h-0.1v0.2 0.1h-0.1v0.2 0.1 0.2h-0.1v0.1 0.2 0.1h-0.1v0.2 0.1h-0.1v0.2 0.1 0.1h-0.1v0.2 0.1 0.2h-0.1v0.1 0.2h-0.1v0.1 0.1 0.2h-0.1v0.1 0.2 0.1h-0.1v0.2 0.1h-0.1v0.2 0.1h-2.4v-0.1-0.2h-0.1v-0.1-0.2-0.1h-0.1v-0.2-0.1h-0.1v-0.2-0.1-0.2h-0.1v-0.1-0.2-0.1h-0.1v-0.2-0.1h-0.1v-0.2-0.1-0.2h-0.1v-0.1-0.1-0.2h-0.1v-0.1-0.2h-0.1v-0.1-0.2-0.1h-0.1v-0.2-0.1-0.2h-0.1v-0.1-0.2h-0.1v-0.1-0.2-0.1h-0.1v-0.2-0.1-0.2h-0.1v-0.1-0.2h-0.1v-0.1-0.2-0.1h-0.1v-0.2-0.1-0.2h-0.1v-0.1-0.2h-0.1v-0.1-0.2-0.1h-0.1v-0.2-0.1-0.2h-0.1v-0.1 0.1h-0.1v0.2 0.1 0.2h-0.1v0.1 0.1 0.2h-0.1v0.1 0.2h-0.1v0.2 0.1 0.2h-0.1v0.1 0.2 0.1h-0.1v0.2 0.1h-0.1v0.1 0.2 0.1h-0.1v0.2 0.1 0.2h-0.1v0.1 0.2h-0.1v0.1 0.2 0.1h-0.1v0.1 0.2 0.1h-0.1v0.2 0.1h-0.1v0.2 0.1 0.2h-0.1v0.1 0.2 0.1h-0.1v0.2 0.1 0.2h-0.1v0.1 0.2h-0.1v0.1 0.2 0.1h-0.1v0.2 0.1 0.2h-0.1v0.1 0.1h-0.1v0.2 0.1 0.1h-2.4v-0.1-0.2h-0.1v-0.1-0.2-0.1h-0.1v-0.2-0.1h-0.1v-0.1-0.2-0.1h-0.1v-0.2-0.1-0.2h-0.1v-0.1-0.2h-0.1v-0.1-0.1-0.2h-0.1v-0.1-0.2-0.1h-0.1v-0.2-0.1h-0.1v-0.2-0.1-0.2h-0.1v-0.1-0.2-0.1h-0.1v-0.2-0.1h-0.1v-0.1-0.2-0.1h-0.1v-0.2-0.1-0.2h-0.1v-0.1-0.2h-0.1v-0.1-0.1-0.2h-0.1v-0.1-0.2-0.1h-0.1v-0.2-0.2h-0.1v-0.1-0.1-0.2h-0.1v-0.1-0.2-0.1h-0.1v-0.2-0.1h-0.1v-0.1-0.2-0.1h-0.1v-0.2-0.1-0.2h-0.1v-0.1-0.2h-0.1v-0.1-0.2-0.1h-0.1v-0.2-0.1-0.2h-0.1v-0.1-0.2h-0.1v-0.1-0.1-0.2h-0.1v-0.1-0.2-0.1h-0.1v-0.2z"></path><path fill-rule="evenodd" class="a" d="m90.7 15.7h3.5v0.2 0.1 0.1h0.1v0.2 0.1 0.1h0.1v0.2 0.1h0.1v0.1 0.1 0.2h0.1v0.1 0.2 0.1h0.1v0.1 0.2h0.1v0.1 0.1 0.1h0.1v0.2 0.1 0.2h0.1v0.1 0.1h0.1v0.1 0.2 0.1h0.1v0.2 0.1 0.1h0.1v0.2 0.1h0.1v0.1 0.1 0.2h0.1v0.1 0.2 0.1h0.1v0.1 0.1h0.1v0.2 0.1 0.2h0.1v0.1 0.1 0.2h0.1v0.1 0.1h0.1v0.1 0.2 0.1h0.1v0.2 0.1 0.1h0.1v0.2 0.1h0.1v0.1 0.2 0.1h0.1v0.1 0.2 0.1h0.1v0.1 0.1h0.1v0.2 0.1 0.2h0.1v0.1 0.1 0.2h0.1v0.1 0.1h0.1v0.2 0.1 0.1h0.1v0.2 0.1 0.1h0.1v0.1 0.2h0.1v0.1 0.2 0.1h0.1v0.1 0.2 0.1h0.1v0.1 0.2h0.1v0.1 0.1 0.2h0.1v0.1 0.1 0.1h0.1v0.2 0.1h0.1v0.2 0.1 0.1h0.1v0.2 0.1 0.1h0.1v0.1 0.2h0.1v0.1 0.2 0.1h0.1v0.1 0.1 0.2h0.1v0.1 0.2h0.1v0.1 0.1 0.2h0.1v0.1 0.1 0.1h0.1v0.2 0.1h-2.5v-0.1h-0.1v-0.1-0.2-0.1h-0.1v-0.1-0.2h-0.1v-0.1-0.1-0.2h-0.1v-0.1-0.2-0.1h-0.1v-0.2-0.1h-0.1v-0.2-0.1-0.1h-0.1v-0.2-0.1-0.1h-0.1v-0.2-0.1h-0.1v-0.2-0.1-0.2h-0.1v-0.1-0.2-0.1h-0.1v-0.1-0.2h-5.3v0.1 0.2 0.1h-0.1v0.2 0.1 0.2h-0.1v0.1 0.1h-0.1v0.2 0.1 0.2h-0.1v0.1 0.1 0.2h-0.1v0.1 0.2h-0.1v0.1 0.2 0.1h-0.1v0.1 0.2 0.1h-0.1v0.2 0.1h-0.1v0.1 0.2 0.1h-0.1v0.1 0.2 0.1h-2.5v-0.1h0.1v-0.1-0.1-0.1h0.1v-0.2-0.1-0.2h0.1v-0.1-0.1h0.1v-0.2-0.1-0.1h0.1v-0.1-0.2-0.1h0.1v-0.2-0.1h0.1v-0.1-0.2-0.1h0.1v-0.1-0.2-0.1h0.1v-0.1-0.2h0.1v-0.1-0.1-0.2h0.1v-0.1-0.1-0.2h0.1v-0.1-0.1h0.1v-0.2-0.1-0.1h0.1v-0.2-0.1-0.2h0.1v-0.1-0.1h0.1v-0.1-0.2-0.1h0.1v-0.1-0.2-0.1h0.1v-0.2-0.1h0.1v-0.1-0.1-0.2h0.1v-0.1-0.2-0.1h0.1v-0.1-0.2h0.1v-0.1-0.1-0.1h0.1v-0.2-0.1-0.2h0.1v-0.1-0.1h0.1v-0.2-0.1-0.1h0.1v-0.2-0.1-0.1h0.1v-0.2-0.1h0.1v-0.1-0.2-0.1h0.1v-0.1-0.2-0.1h0.1v-0.1-0.2h0.1v-0.1-0.1-0.2h0.1v-0.1-0.2-0.1h0.1v-0.1-0.1h0.1v-0.2-0.1-0.1h0.1v-0.2-0.1-0.2h0.1v-0.1-0.1h0.1v-0.1-0.2-0.1h0.1v-0.2-0.1-0.1h0.1v-0.2-0.1h0.1v-0.1-0.1-0.2h0.1v-0.1-0.2-0.1h0.1v-0.1-0.2h0.1v-0.1-0.1-0.1h0.1v-0.2-0.1-0.2h0.1zm1.6 2.2v0.1 0.1 0.2h-0.1v0.1 0.2h-0.1v0.1 0.2 0.1h-0.1v0.1 0.2 0.1h-0.1v0.1 0.2h-0.1v0.1 0.2 0.1h-0.1v0.2 0.1 0.2h-0.1v0.1 0.1h-0.1v0.2 0.1 0.1h-0.1v0.2 0.1 0.2h-0.1v0.1 0.2h-0.1v0.1 0.1 0.2h-0.1v0.1 0.2 0.1h-0.1v0.1 0.2h-0.1v0.1 0.2 0.1h-0.1v0.2 0.1 0.1h-0.1v0.2 0.1h-0.1v0.1 0.2 0.1h-0.1v0.2 0.1 0.2h-0.1v0.1 0.2h-0.1v0.1h4.1v-0.1h-0.1v-0.2-0.1-0.2h-0.1v-0.1-0.1-0.2h-0.1v-0.1-0.1h-0.1v-0.2-0.1-0.2h-0.1v-0.1-0.2-0.1h-0.1v-0.2-0.1h-0.1v-0.1-0.2-0.1h-0.1v-0.1-0.2-0.1h-0.1v-0.2-0.1-0.2h-0.1v-0.1-0.2h-0.1v-0.1-0.1-0.2h-0.1v-0.1-0.1-0.2h-0.1v-0.1-0.2h-0.1v-0.1-0.2-0.1h-0.1v-0.1-0.2-0.1h-0.1v-0.2-0.1h-0.1v-0.1-0.2-0.1h-0.1v-0.1-0.2-0.1h-0.1v-0.2-0.1h-0.1v-0.2-0.1z"></path><path fill-rule="evenodd" d="m59.2 15.7h2.4v5.5-0.1h0.1v-0.1h0.1v-0.1h0.1v-0.1h0.1v-0.1h0.1 0.1v-0.1h0.1v-0.1h0.1 0.1v-0.1h0.1 0.1v-0.1h0.1 0.1v-0.1h0.1 0.1 0.2v-0.1h0.1 0.2 0.3v-0.1h1v0.1h0.3 0.2 0.1v0.1h0.1 0.2 0.1v0.1h0.1 0.1v0.1h0.1 0.1v0.1h0.1 0.1v0.1h0.1v0.1h0.1 0.1v0.1h0.1v0.1h0.1v0.1h0.1v0.1h0.1v0.1h0.1v0.1h0.1v0.1h0.1v0.1h0.1v0.1 0.1h0.1v0.1h0.1v0.1 0.1h0.1v0.1 0.1h0.1v0.1 0.1h0.1v0.1 0.1h0.1v0.1 0.1 0.1h0.1v0.1 0.2h0.1v0.1 0.1 0.2h0.1v0.2 0.1 0.2h0.1v0.3 0.3h0.1v0.6 1.1 0.6h-0.1v0.3 0.3h-0.1v0.2 0.2 0.1h-0.1v0.2 0.1 0.2h-0.1v0.1 0.1h-0.1v0.1 0.1 0.1h-0.1v0.1 0.1 0.1h-0.1v0.1 0.1h-0.1v0.1 0.1h-0.1v0.1 0.1h-0.1v0.1h-0.1v0.1 0.1h-0.1v0.1h-0.1v0.1h-0.1v0.1 0.1h-0.1v0.1h-0.1-0.1v0.1 0.1h-0.1v0.1h-0.1-0.1v0.1h-0.1v0.1h-0.1-0.1v0.1h-0.1v0.1h-0.1-0.1v0.1h-0.1-0.1v0.1h-0.1-0.1-0.1v0.1h-0.1-0.1v0.1h-0.2-0.1-0.3v0.1h-1.1v-0.1h-0.2-0.2-0.2v-0.1h-0.1-0.1v-0.1h-0.1-0.1-0.1v-0.1h-0.1-0.1v-0.1h-0.1v-0.1h-0.1-0.1v-0.1h-0.1v-0.1h-0.1-0.1v-0.1h-0.1v-0.1h-0.1v-0.1h-0.1v-0.1-0.1h-0.1v0.2 0.2h-0.1v0.2 0.1h-0.1v0.2 0.1h-2zm4.3 6.3h-0.2-0.2v0.1h-0.1-0.2v0.1h-0.1-0.1v0.1h-0.1-0.1v0.1h-0.1v0.1h-0.1-0.1v0.1h-0.1v0.1h-0.1-0.1v0.1h-0.1v0.1 0.1h-0.1v6h0.1v0.1h0.1v0.1h0.1v0.1h0.1v0.1h0.1 0.1v0.1h0.1v0.1h0.1v0.1h0.1 0.1 0.1v0.1h0.1v0.1h0.1 0.1 0.2v0.1h0.2 0.3 0.2 0.3 0.1v-0.1h0.2 0.1v-0.1h0.1 0.1v-0.1h0.1v-0.1h0.1 0.1v-0.1h0.1v-0.1h0.1v-0.1h0.1v-0.1-0.1h0.1v-0.1h0.1v-0.1-0.1h0.1v-0.1-0.1h0.1v-0.1-0.1h0.1v-0.1-0.1h0.1v-0.2-0.1-0.1h0.1v-0.2-0.2-0.2h0.1v-0.3-0.5h0.1v-1h-0.1v-0.5-0.3h-0.1v-0.2-0.1-0.2h-0.1v-0.1-0.2-0.1h-0.1v-0.1-0.1h-0.1v-0.1-0.1h-0.1v-0.1-0.1h-0.1v-0.1h-0.1v-0.1-0.1h-0.1v-0.1-0.1h-0.1-0.1v-0.1h-0.1v-0.1h-0.1v-0.1h-0.1-0.1v-0.1h-0.1-0.1v-0.1h-0.1-0.1v-0.1h-0.2-0.2z"></path><path fill-rule="evenodd" d="m34 20h1.3v0.1h0.3 0.2 0.2v0.1h0.2 0.1 0.2v0.1h0.1 0.1v0.1h0.1 0.1v0.1h0.1 0.1 0.1v0.1h0.1v0.1h0.1 0.1v0.1h0.1v0.1h0.1v0.1h0.1 0.1v0.1 0.1h0.1v0.1h0.1v0.1h0.1v0.1h0.1v0.1h0.1v0.1 0.1h0.1v0.1 0.1 0.1h0.1v0.1h0.1v0.2 0.1 0.1h0.1v0.2 0.2 0.5h0.1v7.2 0.4h0.1v0.2 0.2 0.2h-2.4v-0.2-0.2-0.2h-0.1v-0.4h-0.1v0.1h-0.1v0.1h-0.1v0.1h-0.1v0.1h-0.1-0.1v0.1h-0.1v0.1h-0.1v0.1h-0.1-0.1v0.1h-0.1v0.1h-0.1-0.1-0.1v0.1h-0.1-0.1-0.1v0.1h-0.1-0.2v0.1h-0.1-0.2-0.3v0.1h-1.1v-0.1h-0.2-0.2-0.2v-0.1h-0.1-0.1v-0.1h-0.1-0.1-0.1v-0.1h-0.1-0.1v-0.1h-0.1v-0.1h-0.1-0.1v-0.1h-0.1v-0.1h-0.1-0.1v-0.1h-0.1v-0.1h-0.1v-0.1h-0.1v-0.1-0.1h-0.1v-0.1h-0.1v-0.1h-0.1v-0.1-0.1h-0.1v-0.1-0.1h-0.1v-0.2h-0.1v-0.1-0.2-0.1h-0.1v-0.2-0.4-0.5-0.3-0.2h0.1v-0.1-0.1-0.1h0.1v-0.1-0.1h0.1v-0.1-0.1-0.1h0.1v-0.1h0.1v-0.1-0.1h0.1v-0.1h0.1v-0.1h0.1v-0.1h0.1v-0.1h0.1v-0.1h0.1v-0.1h0.1v-0.1h0.1 0.1v-0.1h0.1v-0.1h0.1 0.1v-0.1h0.1 0.1v-0.1h0.1v-0.1h0.1 0.1 0.1v-0.1h0.1 0.1 0.1v-0.1h0.1 0.1v-0.1h0.1 0.1 0.2v-0.1h0.1 0.1 0.2v-0.1h0.1 0.1v-0.1h0.2 0.1 0.1v-0.1h0.2 0.1v-0.1h0.1 0.1 0.2v-0.1h0.1 0.2 0.1v-0.1h0.1 0.1v-0.1h0.2 0.1 0.1v-0.1h0.2 0.1 0.2v-0.1h0.1 0.1v-0.6h-0.1v-0.3-0.2-0.1h-0.1v-0.1-0.1h-0.1v-0.1-0.1h-0.1v-0.1h-0.1v-0.1h-0.1v-0.1h-0.1v-0.1h-0.1v-0.1h-0.1-0.1-0.1v-0.1h-0.1-0.1-0.2v-0.1h-0.2-0.6-0.3v0.1h-0.1-0.2-0.1v0.1h-0.1-0.1v0.1h-0.1-0.1v0.1h-0.1v0.1h-0.1-0.1v0.1h-0.1v0.1h-0.1v0.1h-0.1-0.1v0.1 0.1h-0.1v0.1h-0.1v0.1h-0.1v0.1 0.1h-0.1v0.1 0.1h-0.1v0.1h-0.1v-0.1h-0.1-0.1v-0.1h-0.1-0.1v-0.1h-0.1v-0.1h-0.1-0.1v-0.1h-0.1-0.1v-0.1h-0.1-0.1v-0.1h-0.1-0.1v-0.1h-0.1v-0.1h-0.1-0.1v-0.1h-0.1v-0.1h0.1v-0.1-0.1h0.1v-0.1-0.1h0.1v-0.1h0.1v-0.1-0.1h0.1v-0.1h0.1v-0.1-0.1h0.1v-0.1h0.1v-0.1h0.1v-0.1h0.1v-0.1h0.1 0.1v-0.1-0.1h0.1 0.1v-0.1h0.1 0.1v-0.1h0.1v-0.1h0.1 0.1v-0.1h0.1v-0.1h0.1 0.1 0.1v-0.1h0.1 0.2v-0.1h0.1 0.1v-0.1h0.1 0.1 0.2v-0.1h0.2 0.2 0.3zm2.4 6h-0.1v0.1h-0.2-0.1-0.1v0.1h-0.1-0.1v0.1h-0.2-0.1-0.1v0.1h-0.1-0.1-0.2v0.1h-0.1-0.1v0.1h-0.1-0.1-0.2v0.1h-0.1-0.1-0.1v0.1h-0.1-0.2v0.1h-0.1-0.1v0.1h-0.1-0.1v0.1h-0.1-0.1v0.1h-0.1v0.1h-0.1v0.1h-0.1-0.1v0.1 0.1h-0.1v0.1h-0.1v0.1 0.1h-0.1v0.1 0.1 0.1h-0.1v0.5h0.1v0.2 0.1 0.1h0.1v0.1 0.1h0.1v0.1 0.1h0.1v0.1h0.1v0.1h0.1v0.1h0.1 0.1v0.1h0.2v0.1h0.1 0.2v0.1h0.3 0.2 0.4v-0.1h0.1 0.2 0.1v-0.1h0.1 0.1v-0.1h0.1 0.1v-0.1h0.1 0.1v-0.1h0.1 0.1v-0.1h0.1v-0.1h0.1v-0.1h0.1 0.1v-0.1h0.1v-0.1h0.1v-0.1h0.1v-0.1-0.1h0.1v-2.8z"></path><path fill-rule="evenodd" class="a" d="m117 20h1.3v0.1h0.4 0.2 0.2v0.1h0.1 0.2 0.1v0.1h0.1 0.1v0.1h0.1 0.1 0.1v0.1h0.1 0.1v0.1h0.1v0.1h0.1 0.1v0.1h0.1v0.1h0.1 0.1v0.1h0.1v0.1 0.1h0.1 0.1v0.1h0.1v0.1 0.1h0.1v0.1h0.1v0.1 0.1h0.1v0.1 0.1h0.1v0.1 0.1h0.1v0.1 0.1 0.1h0.1v0.2 0.2 0.3h0.1v7 0.7h0.1v0.3 0.2 0.2h0.1v0.1h-2.4v-0.1h-0.1v-0.2-0.3-0.3h-0.1v-0.1h-0.1v0.1h-0.1v0.1h-0.1v0.1h-0.1v0.1h-0.1v0.1h-0.1-0.1v0.1h-0.1v0.1h-0.1-0.1v0.1h-0.1v0.1h-0.1-0.1-0.1v0.1h-0.1-0.1-0.1v0.1h-0.1-0.1v0.1h-0.2-0.2-0.3v0.1h-1.1v-0.1h-0.2-0.2-0.1v-0.1h-0.2-0.1v-0.1h-0.1-0.1v-0.1h-0.1-0.1-0.1v-0.1h-0.1v-0.1h-0.1-0.1v-0.1h-0.1v-0.1h-0.1v-0.1h-0.1v-0.1h-0.1v-0.1h-0.1v-0.1h-0.1v-0.1h-0.1v-0.1-0.1h-0.1v-0.1h-0.1v-0.1-0.1h-0.1v-0.1-0.1h-0.1v-0.1-0.1h-0.1v-0.1-0.2-0.2h-0.1v-0.2-0.8-0.2h0.1v-0.2-0.1-0.2h0.1v-0.1h0.1v-0.2-0.1h0.1v-0.1-0.1h0.1v-0.1h0.1v-0.1-0.1h0.1v-0.1h0.1v-0.1h0.1v-0.1h0.1v-0.1h0.1v-0.1h0.1 0.1v-0.1h0.1v-0.1h0.1v-0.1h0.1 0.1v-0.1h0.1 0.1v-0.1h0.1 0.1v-0.1h0.1 0.1v-0.1h0.1 0.1 0.1v-0.1h0.1 0.1v-0.1h0.1 0.2 0.1v-0.1h0.1 0.2 0.1v-0.1h0.1 0.1v-0.1h0.2 0.1 0.2v-0.1h0.1 0.1v-0.1h0.1 0.2 0.1v-0.1h0.1 0.2 0.1v-0.1h0.2 0.1v-0.1h0.1 0.1 0.2v-0.1h0.1 0.1 0.2v-0.1h0.1 0.1v-0.8h-0.1v-0.2-0.1-0.2h-0.1v-0.1-0.1h-0.1v-0.1h-0.1v-0.1h-0.1v-0.1h-0.1v-0.1h-0.1v-0.1h-0.1v-0.1h-0.1-0.1-0.1v-0.1h-0.1-0.1-0.2v-0.1h-0.2-0.6-0.2v0.1h-0.2-0.1-0.1v0.1h-0.1-0.1-0.1v0.1h-0.1-0.1v0.1h-0.1v0.1h-0.1-0.1v0.1h-0.1v0.1h-0.1v0.1h-0.1v0.1h-0.1v0.1h-0.1v0.1h-0.1v0.1 0.1h-0.1v0.1 0.1h-0.1v0.1h-0.1v0.1-0.1h-0.1-0.1-0.1v-0.1h-0.1v-0.1h-0.1-0.1v-0.1h-0.1-0.1v-0.1h-0.1-0.1v-0.1h-0.1v-0.1h-0.1-0.1-0.1v-0.1h-0.1v-0.1h-0.1-0.1v-0.1h-0.1v-0.1h0.1v-0.1-0.1h0.1v-0.1-0.1h0.1v-0.1h0.1v-0.1-0.1h0.1v-0.1h0.1v-0.1h0.1v-0.1h0.1v-0.1h0.1v-0.1h0.1v-0.1h0.1v-0.1h0.1v-0.1h0.1v-0.1h0.1v-0.1h0.1 0.1v-0.1h0.1v-0.1h0.1 0.1v-0.1h0.1v-0.1h0.1 0.1 0.1v-0.1h0.1 0.1 0.1v-0.1h0.1 0.1v-0.1h0.1 0.2 0.1v-0.1h0.2 0.2 0.3zm2.4 6h-0.1v0.1h-0.1-0.1-0.1v0.1h-0.2-0.1v0.1h-0.1-0.2-0.1v0.1h-0.1-0.1-0.2v0.1h-0.1-0.1v0.1h-0.1-0.1-0.2v0.1h-0.1-0.1-0.1v0.1h-0.1-0.1v0.1h-0.1-0.1-0.1v0.1h-0.1-0.1v0.1h-0.1-0.1v0.1h-0.1v0.1h-0.1v0.1h-0.1v0.1h-0.1v0.1h-0.1v0.1h-0.1v0.1 0.1h-0.1v0.1 0.1 0.7 0.2 0.1h0.1v0.1 0.1h0.1v0.1h0.1v0.1 0.1h0.1v0.1h0.1 0.1v0.1h0.1v0.1h0.1 0.1v0.1h0.1 0.1 0.1v0.1h0.3 0.3 0.3v-0.1h0.1 0.2 0.1v-0.1h0.1 0.1v-0.1h0.1 0.1 0.1v-0.1h0.1v-0.1h0.1 0.1v-0.1h0.1v-0.1h0.1 0.1v-0.1h0.1v-0.1h0.1v-0.1h0.1v-0.1h0.1v-0.1h0.1v-2.9z"></path><path fill-rule="evenodd" class="a" d="m134.9 20h1.1v0.1h0.3 0.2 0.2v0.1h0.1 0.2 0.1v0.1h0.1 0.1v0.1h0.2v0.1h0.1 0.1 0.1v0.1h0.1v0.1h0.1 0.1v0.1 0.1h0.1 0.1v0.1h0.1v0.1h0.1v0.1h0.1v0.1h0.1v0.1h0.1v0.1h0.1v0.1h0.1v0.1 0.1h0.1v0.1h0.1v0.1 0.1h0.1v0.1 0.1h0.1v0.1 0.1h0.1v0.1 0.1h0.1v0.1 0.1 0.1h0.1v0.2 0.1 0.1h0.1v0.2 0.2h0.1v0.1 0.3 0.3h0.1v0.7 1.3h-7.1v0.7 0.3h0.1v0.2 0.2 0.1h0.1v0.1 0.1h0.1v0.2 0.1h0.1v0.1 0.1 0.1h0.1v0.1h0.1v0.1h0.1v0.1 0.1h0.1v0.1h0.1v0.1h0.1v0.1h0.1v0.1h0.1 0.1v0.1h0.1v0.1h0.1 0.1v0.1h0.1 0.1 0.1v0.1h0.1 0.2v0.1h0.2 0.5 0.3v-0.1h0.2 0.1v-0.1h0.1 0.1 0.1v-0.1h0.1 0.1v-0.1h0.1v-0.1h0.1 0.1v-0.1h0.1v-0.1h0.1v-0.1h0.1v-0.1h0.1v-0.1h0.1v-0.1h0.1v-0.1-0.1h0.1v-0.1-0.1h0.1v-0.1h0.1v-0.1h0.1v0.1h0.1 0.1 0.1v0.1h0.1 0.1v0.1h0.1 0.1v0.1h0.1 0.1 0.1v0.1h0.1 0.1v0.1h0.2v0.1h0.1 0.1 0.1v0.1h0.1v0.1h-0.1v0.1 0.1h-0.1v0.1h-0.1v0.1 0.1h-0.1v0.1 0.1h-0.1v0.1h-0.1v0.1 0.1h-0.1v0.1h-0.1v0.1h-0.1v0.1h-0.1v0.1h-0.1v0.1h-0.1v0.1h-0.1v0.1h-0.1v0.1h-0.1-0.1v0.1h-0.1v0.1h-0.1-0.1v0.1h-0.1-0.1v0.1h-0.1v0.1h-0.1-0.1-0.1v0.1h-0.1-0.1-0.1v0.1h-0.2-0.1v0.1h-0.2-0.2-0.3v0.1h-1.3v-0.1h-0.3-0.2-0.2v-0.1h-0.1-0.2v-0.1h-0.1-0.1-0.1v-0.1h-0.1-0.1-0.1v-0.1h-0.1v-0.1h-0.1-0.1v-0.1h-0.1-0.1v-0.1h-0.1v-0.1h-0.1-0.1v-0.1h-0.1v-0.1h-0.1v-0.1h-0.1v-0.1h-0.1v-0.1h-0.1v-0.1h-0.1v-0.1h-0.1v-0.1h-0.1v-0.1-0.1h-0.1v-0.1h-0.1v-0.1h-0.1v-0.1-0.1h-0.1v-0.1-0.1h-0.1v-0.1-0.1h-0.1v-0.1-0.1-0.1h-0.1v-0.1-0.1h-0.1v-0.1-0.1-0.1h-0.1v-0.1-0.2-0.1h-0.1v-0.2-0.2h-0.1v-0.2-0.4-0.5h-0.1v-0.9h0.1v-0.5-0.4-0.2h0.1v-0.2-0.2h0.1v-0.2-0.1-0.2h0.1v-0.1-0.1-0.1h0.1v-0.1-0.1h0.1v-0.1-0.1-0.1h0.1v-0.1-0.1-0.1h0.1v-0.1h0.1v-0.1-0.1h0.1v-0.1-0.1h0.1v-0.1h0.1v-0.1-0.1h0.1v-0.1h0.1v-0.1h0.1v-0.1h0.1v-0.1-0.1h0.1 0.1v-0.1h0.1v-0.1-0.1h0.1 0.1v-0.1h0.1v-0.1h0.1 0.1v-0.1h0.1v-0.1h0.1 0.1v-0.1h0.1 0.1v-0.1h0.1 0.1v-0.1h0.2 0.1v-0.1h0.1 0.1 0.1v-0.1h0.2 0.2 0.3zm0.2 1.9v0.1h-0.2-0.1-0.1v0.1h-0.1-0.1-0.1v0.1h-0.1v0.1h-0.1-0.1v0.1h-0.1v0.1h-0.1v0.1h-0.1v0.1h-0.1v0.1h-0.1v0.1h-0.1v0.1 0.1h-0.1v0.1h-0.1v0.1 0.1 0.1h-0.1v0.1 0.1 0.1h-0.1v0.1 0.1h-0.1v0.2 0.2 0.2h-0.1v0.3h4.8v-0.8-0.2h-0.1v-0.2-0.1-0.1h-0.1v-0.1-0.2h-0.1v-0.1-0.1h-0.1v-0.1-0.1h-0.1v-0.1h-0.1v-0.1h-0.1v-0.1-0.1h-0.1-0.1v-0.1h-0.1v-0.1h-0.1v-0.1h-0.1-0.1-0.1v-0.1h-0.1-0.1-0.2v-0.1z"></path><path fill-rule="evenodd" d="m79.4 20h1.1v0.1h0.3 0.2 0.2v0.1h0.1 0.2 0.1v0.1h0.1 0.1v0.1h0.2v0.1h0.1 0.1 0.1v0.1h0.1v0.1h0.1 0.1v0.1 0.1h0.1 0.1v0.1h0.1v0.1h0.1v0.1h0.1v0.1h0.1v0.1h0.1v0.1h0.1v0.1 0.1h0.1v0.1h0.1v0.1h0.1v0.1 0.1h0.1v0.1 0.1h0.1v0.1 0.1h0.1v0.1 0.1 0.1h0.1v0.1 0.1h0.1v0.2 0.1 0.1h0.1v0.2 0.2 0.1h0.1v0.3 0.3h0.1v0.7 1.3h-7.1v0.7 0.3h0.1v0.2 0.2 0.1h0.1v0.1 0.1 0.2h0.1v0.1h0.1v0.1 0.1 0.1h0.1v0.1 0.1h0.1 0.1v0.1 0.1h0.1v0.1h0.1v0.1h0.1v0.1h0.1v0.1h0.1 0.1v0.1h0.1v0.1h0.1 0.1v0.1h0.1 0.2v0.1h0.1 0.2v0.1h0.2 0.5 0.3v-0.1h0.2 0.1v-0.1h0.1 0.1 0.1v-0.1h0.1 0.1v-0.1h0.1v-0.1h0.1 0.1v-0.1h0.1v-0.1h0.1v-0.1h0.1v-0.1h0.1v-0.1h0.1v-0.1h0.1v-0.1-0.1h0.1v-0.1-0.1h0.1v-0.1h0.1v-0.1h0.1v0.1h0.1 0.1 0.1v0.1h0.1 0.1v0.1h0.1 0.1v0.1h0.1 0.1 0.1v0.1h0.1 0.1v0.1h0.1 0.1v0.1h0.1 0.1 0.1v0.1h0.1v0.1h-0.1v0.1h-0.1v0.1 0.1h-0.1v0.1 0.1h-0.1v0.1h-0.1v0.1 0.1h-0.1v0.1 0.1h-0.1v0.1h-0.1v0.1h-0.1v0.1h-0.1v0.1h-0.1v0.1h-0.1v0.1h-0.1v0.1h-0.1v0.1h-0.1-0.1v0.1h-0.1v0.1h-0.1-0.1v0.1h-0.1-0.1v0.1h-0.1v0.1h-0.1-0.1-0.1v0.1h-0.1-0.1-0.1v0.1h-0.2-0.1v0.1h-0.2-0.2-0.3v0.1h-1.3v-0.1h-0.3-0.2-0.2v-0.1h-0.2-0.1v-0.1h-0.1-0.1-0.1v-0.1h-0.1-0.1-0.1v-0.1h-0.1v-0.1h-0.1-0.1v-0.1h-0.1-0.1v-0.1h-0.1v-0.1h-0.1-0.1v-0.1h-0.1v-0.1h-0.1v-0.1h-0.1v-0.1h-0.1v-0.1h-0.1v-0.1h-0.1v-0.1h-0.1v-0.1h-0.1v-0.1h-0.1v-0.1-0.1h-0.1v-0.1h-0.1v-0.1-0.1h-0.1v-0.1-0.1h-0.1v-0.1-0.1h-0.1v-0.1-0.1h-0.1v-0.1-0.1-0.1h-0.1v-0.1-0.1-0.1h-0.1v-0.1-0.2h-0.1v-0.1-0.2-0.2h-0.1v-0.2-0.4-0.4h-0.1v-1h0.1v-0.5-0.4-0.2h0.1v-0.2-0.2-0.2h0.1v-0.1-0.2h0.1v-0.1-0.1-0.1h0.1v-0.1-0.1-0.1h0.1v-0.1-0.1h0.1v-0.1-0.1-0.1h0.1v-0.1-0.1h0.1v-0.1h0.1v-0.1-0.1h0.1v-0.1-0.1h0.1v-0.1h0.1v-0.1h0.1v-0.1-0.1h0.1 0.1v-0.1-0.1h0.1v-0.1h0.1 0.1v-0.1-0.1h0.1 0.1v-0.1h0.1v-0.1h0.1v-0.1h0.1 0.1v-0.1h0.1v-0.1h0.1 0.1 0.1v-0.1h0.2v-0.1h0.1 0.1v-0.1h0.2 0.1 0.1v-0.1h0.2 0.2 0.3zm0.2 1.9v0.1h-0.2-0.1-0.2v0.1h-0.1-0.1v0.1h-0.1v0.1h-0.1-0.1v0.1h-0.1v0.1h-0.1v0.1h-0.1v0.1h-0.1v0.1h-0.1v0.1h-0.1v0.1 0.1h-0.1v0.1h-0.1v0.1 0.1 0.1h-0.1v0.1 0.1h-0.1v0.1 0.1 0.1h-0.1v0.2 0.2 0.2h-0.1v0.3h4.8v-0.7-0.3h-0.1v-0.2-0.1-0.1h-0.1v-0.1-0.2h-0.1v-0.1-0.1h-0.1v-0.1-0.1h-0.1v-0.1h-0.1v-0.1h-0.1v-0.1-0.1h-0.1-0.1v-0.1h-0.1v-0.1h-0.1v-0.1h-0.1-0.1-0.1v-0.1h-0.1-0.1-0.2v-0.1z"></path><path d="m70.6 15.7h2.4v16h-2.4z"></path><path class="a" d="m129.9 20.1h0.4v2.3h-0.1-0.5-0.2v0.1h-0.2-0.1-0.1v0.1h-0.1-0.2v0.1h-0.1-0.2v0.1h-0.1-0.1v0.1h-0.1v0.1h-0.1-0.1v0.1h-0.1-0.1v0.1h-0.1v0.1h-0.1-0.1v0.1h-0.1v0.1h-0.1-0.1v0.1h-0.1v0.1h-0.1v0.1h-0.1v0.1h-0.1-0.1v0.1h-0.1v0.1h-0.1v7.6h-2.4v-11.4h2.3v2.1-0.1h0.1v-0.1h0.1v-0.1h0.1v-0.1-0.1h0.1 0.1v-0.1h0.1v-0.1-0.1h0.1 0.1v-0.1h0.1v-0.1h0.1v-0.1h0.1v-0.1h0.1 0.1v-0.1h0.1v-0.1h0.1v-0.1h0.1 0.1v-0.1h0.1v-0.1h0.1 0.1v-0.1h0.1v-0.1h0.1 0.1 0.1v-0.1h0.1 0.1 0.1v-0.1h0.1 0.1v-0.1h0.2 0.2 0.2z"></path></svg>