<svg class="gamcare-footer-icon" enable-background="new 0 0 1014 292.5" viewBox="0 0 1014 292.5" xmlns="http://www.w3.org/2000/svg"><g fill="#fff"><path d="m382.7 111.3c.7 2.5-.2 4-2.2 4.7l-19.4 5.8c-2.3.7-3.6 0-4.3-2.3-3-9.9-9.5-15.3-21.4-15.3-18.3 0-24.4 10.8-24.4 25.3v33.4c0 14.6 6.1 25.3 24.4 25.3 15.1 0 23-7 23-22.3v-4.3h-20.1c-1.6 0-2.7-.9-2.7-2.9v-18.5c-.2-1.4.9-2.7 2.3-2.9h.4 43.9c1.8 0 2.9.9 2.9 2.7v27.7c0 26.4-19.4 46.4-49.6 46.4-35.8 0-52.5-21.2-52.5-50.3v-35.2c0-29.1 16.7-50.3 52.5-50.3 28.8-.1 42 16.5 47.2 33zm98.4 33.1v64.9c.1 1.4-1 2.6-2.4 2.7-.1 0-.2 0-.3 0h-19.8c-1.4.2-2.7-.9-2.9-2.3 0-.1 0-.3 0-.4v-10.6c-5.7 9.6-16.1 15.5-27.3 15.3-18.7 0-30.7-12.1-30.7-30.6 0-18 11.3-28.8 39-30.7 6-.5 12-.6 18-.2v-7.2c0-9.7-5-13.5-13.7-13.5-8.8 0-11.3 3.6-13.7 9.2-.9 2.1-1.6 2.5-3.6 2l-19.8-5c-2-.5-2.2-1.6-1.8-3.1 2.7-14.2 16.2-24.6 39.9-24.6 25.1-.1 39.1 11.8 39.1 34.1zm-26.4 34v-9.4c-5.3-.2-10.6 0-15.8.5-10.1 1.3-15.5 4.3-15.5 12 0 7 4.7 10.8 12.4 10.8 8.8.1 15.7-4.8 18.9-13.9zm97.8-68.2c12.6 0 20.8 7.4 24.6 18 7.4-10.8 16.4-18 28.9-18 17.4 0 27.3 13.8 27.3 34.5v64.5c0 1.6-1.4 2.7-3.2 2.7h-20.7c-1.8 0-3.2-1.1-3.2-2.7v-59.9c0-9-4-14.4-11-14.4-7.4 0-12.8 6.1-15.5 15.5v58.8c.1 1.4-.9 2.6-2.3 2.7-.1 0-.1 0-.2 0h-22.2c-1.6 0-2.3-1.1-2.3-2.7v-59.9c0-9-4-14.4-11-14.4-7.5 0-12.9 6.5-15.5 15.6v58.6c.1 1.4-.8 2.6-2.2 2.7-.2 0-.3 0-.5 0h-21.9c-1.4.1-2.6-.8-2.7-2.2 0-.2 0-.3 0-.5v-94.4c0-1.4 1.1-2.5 2.5-2.5h.2 21c1.4-.1 2.6.9 2.7 2.3v.2 11.3c6-8 14.6-15.8 27.2-15.8zm194 2.2c.5 2.3-.2 4.1-2.3 4.7l-19.1 5.6c-2.3.7-3.6-.2-4.3-2.3-2.7-9-7.4-16.2-20.7-16.2-16.4 0-21.6 10.8-21.6 25.3v33.4c0 14.6 5.9 25.3 21.6 25.3 14 0 19.4-7.9 21.6-17.8.5-2.2 2-3.2 4.3-2.3l19 6.1c2.2.7 2.9 2.3 2.3 4.7-4.5 19.4-18.5 35.2-47.6 35.2-32.7 0-49.3-21.2-49.3-50.3v-35.2c0-29.1 16.9-50.3 49.3-50.3 28.5-.1 41.8 15 46.8 34.1zm95.7 32v64.9c.1 1.4-1 2.6-2.4 2.7-.1 0-.2 0-.3 0h-19.8c-1.4.2-2.7-.9-2.9-2.3 0-.1 0-.3 0-.4v-10.6c-5.7 9.6-16.1 15.5-27.3 15.3-18.7 0-30.7-12.1-30.7-30.6 0-18 11.3-28.8 39-30.7 6-.5 12-.6 18-.2v-7.2c0-9.7-5-13.5-13.7-13.5-8.8 0-11.3 3.6-13.7 9.2-.9 2.1-1.6 2.5-3.6 2l-19.8-5c-2-.5-2.2-1.6-1.8-3.1 2.7-14.2 16.2-24.6 39.9-24.6 25.1-.1 39.1 11.8 39.1 34.1zm-26.4 34v-9.4c-5.3-.2-10.6 0-15.8.5-10.1 1.3-15.5 4.3-15.5 12 0 7 4.7 10.8 12.4 10.8 8.8.1 15.7-4.8 18.9-13.9zm103.4-64.2v19.2c0 2.3-.9 3.2-3.2 3.2h-2.9c-14.4 0-22.8 6.5-25.7 17.3v55.4c.1 1.4-.9 2.6-2.2 2.7h-.1-22.6c-1.4-.1-2.4-1.2-2.3-2.6v-.1-94.4c-.1-1.3.9-2.5 2.3-2.5h.4 20.5c2.2 0 2.7 1.4 2.7 2.9v13.3c4.7-8.8 13.5-17.4 28.9-17.4 3.5-.1 4.2.5 4.2 3zm35.3 56.3v3.8c0 10.4 5.4 17.8 18.2 17.8 12.4 0 15.8-4.7 19-10.6 1.6-2.7 2.3-3 5.2-1.8l14.2 7.2c2.9 1.4 3 2.9 1.8 5.6-6.1 13.8-21.4 21.8-40.4 21.8-28.8 0-43.9-17.1-43.9-40.4v-23c0-22.6 14.2-40.4 43.7-40.4 28 0 41.7 17.8 41.7 39.9v15.6c0 2.7-.9 4.5-4.7 4.5zm0-21v3.4h34.7v-3.4c0-9.7-5.4-17.2-17.3-17.2s-17.4 7.4-17.4 17.2z"></path><path d="m124.3 0h-120.6c-2.1 0-3.7 1.6-3.7 3.7v175.5c0 62.6 50.7 113.3 113.3 113.3h11c62.6 0 113.3-50.8 113.3-113.3v-65.8c0-62.7-50.7-113.4-113.3-113.4zm76.9 181c0 42.7-31.4 74.9-80.1 74.9-57.8 0-84.8-34.2-84.8-81.3v-56.9c0-47 27-81.3 84.8-81.3 46.7 0 67.9 26.7 76.3 53.4 1.2 4.1-.3 6.4-3.5 7.6l-31.4 9.3c-3.8 1.2-5.8 0-7-3.8-4.9-16-15.4-24.7-34.5-24.7-29.6 0-39.5 17.4-39.5 40.9v54c0 23.5 9.9 40.9 39.5 40.9 24.4 0 37.1-11.3 37.1-36v-7h-32.5c-2.6 0-4.3-1.4-4.3-4.6v-29.9c0-2.9 1.7-4.6 4.3-4.6h70.8c2.9 0 4.6 1.4 4.6 4.4z"></path></g></svg>