<svg class="gamstop-icon" viewBox="0 0 113.38 20.53" xmlns="http://www.w3.org/2000/svg"><path d="m55.08 20.3h-53.9a1 1 0 0 1 -1-1v-9.3a9.76 9.76 0 0 1 9.76-9.8h45.14a1 1 0 0 1 1 1v18.14a1 1 0 0 1 -1 1z" fill="#35a8e0"></path><g fill="#fff"><path d="m55.09 20.53h-53.9a1.19 1.19 0 0 1 -1.19-1.19v-9.34a10 10 0 0 1 10-10h45.09a1.19 1.19 0 0 1 1.19 1.19v18.15a1.19 1.19 0 0 1 -1.19 1.19zm-45.09-20.05a9.55 9.55 0 0 0 -9.55 9.52v9.34a.73.73 0 0 0 .73.73h53.91a.73.73 0 0 0 .73-.73v-18.14a.73.73 0 0 0 -.73-.73h-45.09z"></path><path d="m19.05 9.55v7.45a.14.14 0 0 1 -.14.14h-2.91a.14.14 0 0 1 -.14-.14.14.14 0 0 0 -.14-.14 6.55 6.55 0 0 1 -.9.21 7.13 7.13 0 0 1 -6-2 6.69 6.69 0 0 1 -1.51-2.27 7.09 7.09 0 0 1 -.5-2.62 7.19 7.19 0 0 1 .5-2.63 6.73 6.73 0 0 1 1.4-2.25 6.9 6.9 0 0 1 2.29-1.53 7 7 0 0 1 5.26 0 6.68 6.68 0 0 1 2.2 1.43.13.13 0 0 1 0 .2l-2.05 2.07a.13.13 0 0 1 -.2 0 3.63 3.63 0 0 0 -1.15-.73 3.77 3.77 0 0 0 -2.84 0 3.57 3.57 0 0 0 -1.22.82 3.76 3.76 0 0 0 0 5.32 3.88 3.88 0 0 0 1.11.77 3.71 3.71 0 0 0 1.27.32 4 4 0 0 0 1.3-.12 3.63 3.63 0 0 0 1.13-.52.14.14 0 0 0 .06-.12v-.48a.14.14 0 0 0 -.14-.14h-2.54a.14.14 0 0 1 -.14-.14v-2.9a.14.14 0 0 1 .14-.14h5.71a.14.14 0 0 1 .15.13z"></path><path d="m30 17.1-.48-1.44a.15.15 0 0 0 -.14-.1h-4.19a.14.14 0 0 0 -.13.1l-.5 1.49a.14.14 0 0 1 -.13.1h-3.08a.14.14 0 0 1 -.14-.14.09.09 0 0 1 0-.05l4.63-13.6a.14.14 0 0 1 .13-.1h2.83a.15.15 0 0 1 .14.1l4.39 13.6a.14.14 0 0 1 -.08.18h-3.12a.14.14 0 0 1 -.14-.14zm-3.6-4.78h1.86a.14.14 0 0 0 .15-.13.13.13 0 0 0 0-.06l-.9-2.78a.15.15 0 0 0 -.17-.1.14.14 0 0 0 -.1.1l-1 2.78a.14.14 0 0 0 .07.18.12.12 0 0 0 .09.01z"></path><path d="m45.6 3.29h3.06a.15.15 0 0 1 .14.13l.8 13.58a.14.14 0 0 1 -.13.15h-2.93a.15.15 0 0 1 -.14-.13l-.29-4.82a.14.14 0 0 0 -.28 0l-1.64 4.9a.14.14 0 0 1 -.13.1h-3a.14.14 0 0 1 -.13-.1l-1.8-5.1a.14.14 0 0 0 -.28 0l-.32 5a.15.15 0 0 1 -.14.13h-2.94a.14.14 0 0 1 -.14-.14l.88-13.57a.15.15 0 0 1 .14-.13h3.06a.14.14 0 0 1 .13.1l2.88 8.22a.15.15 0 0 0 .17.1.14.14 0 0 0 .1-.1l2.8-8.22a.14.14 0 0 1 .13-.1z"></path></g><path d="m58.27.24h53.92a1 1 0 0 1 1 1v9.34a9.76 9.76 0 0 1 -9.76 9.76h-45.16a1 1 0 0 1 -1-1v-18.14a1 1 0 0 1 1-.96z" fill="#1d1d1b"></path><g fill="#fff"><path d="m103.39 20.53h-45.12a1.19 1.19 0 0 1 -1.19-1.19v-18.14a1.19 1.19 0 0 1 1.19-1.2h53.92a1.19 1.19 0 0 1 1.19 1.19v9.34a10 10 0 0 1 -9.99 10zm-45.12-20.05a.73.73 0 0 0 -.73.73v18.13a.73.73 0 0 0 .73.73h45.12a9.55 9.55 0 0 0 9.53-9.53v-9.34a.73.73 0 0 0 -.73-.73z"></path><path d="m66.19 17.2a4.87 4.87 0 0 1 -1.31-.2 4.34 4.34 0 0 1 -1.24-.56 4.66 4.66 0 0 1 -1.59-1.71 4.75 4.75 0 0 1 -.57-2.15.14.14 0 0 1 .13-.15h3a.14.14 0 0 1 .14.14 1.31 1.31 0 0 0 .24.74 1.8 1.8 0 0 0 .44.43 1.4 1.4 0 0 0 .74.25 1.73 1.73 0 0 0 .78-.15 1.23 1.23 0 0 0 .43-.28 1.59 1.59 0 0 0 .25-.33.87.87 0 0 0 .1-.31 1.35 1.35 0 0 0 0-.49 1.19 1.19 0 0 0 -.1-.32 1.59 1.59 0 0 0 -.25-.33 1.55 1.55 0 0 0 -.43-.29l-.44-.17-.5-.17-1-.34a6.27 6.27 0 0 1 -1-.51 4 4 0 0 1 -1.91-3.83 4 4 0 0 1 .41-1.47 4.25 4.25 0 0 1 .85-1.12 4 4 0 0 1 2.47-1.08 4.5 4.5 0 0 1 1.46.2 4.37 4.37 0 0 1 1.3.54 4 4 0 0 1 1 .89 3.85 3.85 0 0 1 .6 1.11 4.1 4.1 0 0 1 .22 1.2.14.14 0 0 1 -.13.15h-2.91a.14.14 0 0 1 -.14-.12.63.63 0 0 0 -.23-.53 2 2 0 0 0 -.51-.24h-.16a.86.86 0 0 0 -.33 0 1.16 1.16 0 0 0 -.37.13.74.74 0 0 0 -.3.33.86.86 0 0 0 -.06.63.9.9 0 0 0 .38.52 3.47 3.47 0 0 0 .59.27l.68.24.65.21a7.07 7.07 0 0 1 .67.26 4.45 4.45 0 0 1 2.66 4.05 4.31 4.31 0 0 1 -.72 2.44 4.67 4.67 0 0 1 -3 2 5.33 5.33 0 0 1 -.99.12z"></path><path d="m108.93 9.16a5.56 5.56 0 0 1 -.44 2.24 5.88 5.88 0 0 1 -1.23 1.84 6 6 0 0 1 -1.83 1.26 5.59 5.59 0 0 1 -2.09.48.14.14 0 0 0 -.14.14v1.94a.14.14 0 0 1 -.14.14h-2.91a.14.14 0 0 1 -.14-.14v-13.6a.14.14 0 0 1 .14-.14h3a5.53 5.53 0 0 1 2.23.49 6.26 6.26 0 0 1 1.83 1.27 5.88 5.88 0 0 1 1.23 1.84 5.74 5.74 0 0 1 .49 2.24zm-5.74 2.5a.14.14 0 0 0 .14.14 2.44 2.44 0 0 0 .84-.23 2.66 2.66 0 0 0 .83-.57 2.7 2.7 0 0 0 .54-.83 2.66 2.66 0 0 0 0-2 2.7 2.7 0 0 0 -.54-.83 2.66 2.66 0 0 0 -.8-.57 2.44 2.44 0 0 0 -.84-.23.14.14 0 0 0 -.15.12z"></path><path d="m90.1 3.31a6.59 6.59 0 0 1 2.7.55 7.15 7.15 0 0 1 2.2 1.48 6.91 6.91 0 0 1 1.5 7.66 7.13 7.13 0 0 1 -3.7 3.71 6.94 6.94 0 0 1 -5.4-12.84 6.77 6.77 0 0 1 2.7-.56zm0 10.69a3.66 3.66 0 0 0 1.46-.29 3.75 3.75 0 1 0 -2.91 0 3.66 3.66 0 0 0 1.46.29z"></path><rect height="10.84" rx=".14" width="3.22" x="75.81" y="6.36"></rect><rect height="3.22" rx=".14" width="8.51" x="73.16" y="3.31"></rect></g></svg>